<?xml version="1.0" encoding="UTF-8" standalone="no"?>
<!DOCTYPE svg PUBLIC "-//W3C//DTD SVG 1.1//EN"
 "http://www.w3.org/Graphics/SVG/1.1/DTD/svg11.dtd">
<!-- Generated by graphviz version 2.40.1 (20161225.0304)
 -->
<!-- Title: G Pages: 1 -->
<svg width="533pt" height="753pt"
 viewBox="0.00 0.00 532.58 753.00" xmlns="http://www.w3.org/2000/svg" xmlns:xlink="http://www.w3.org/1999/xlink">
<g id="graph0" class="graph" transform="scale(1 1) rotate(0) translate(4 749)">
<title>G</title>
<polygon fill="#ffffff" stroke="transparent" points="-4,4 -4,-749 528.5815,-749 528.5815,4 -4,4"/>
<!-- A0 -->
<g id="node1" class="node">
<title>A0</title>
<polygon fill="none" stroke="#000000" points="229.1645,-660.5 229.1645,-744.5 324.9635,-744.5 324.9635,-660.5 229.1645,-660.5"/>
<text text-anchor="middle" x="277.064" y="-731.5" font-family="Helvetica,sans-Serif" font-size="10.00" fill="#000000">Trinity</text>
<polyline fill="none" stroke="#000000" points="229.1645,-724.5 324.9635,-724.5 "/>
<text text-anchor="middle" x="277.064" y="-711.5" font-family="Helvetica,sans-Serif" font-size="10.00" fill="#000000">clock</text>
<polyline fill="none" stroke="#000000" points="229.1645,-704.5 324.9635,-704.5 "/>
<text text-anchor="middle" x="277.064" y="-691.5" font-family="Helvetica,sans-Serif" font-size="10.00" fill="#000000">addScene()</text>
<text text-anchor="middle" x="277.064" y="-679.5" font-family="Helvetica,sans-Serif" font-size="10.00" fill="#000000">changeScene()</text>
<text text-anchor="middle" x="277.064" y="-667.5" font-family="Helvetica,sans-Serif" font-size="10.00" fill="#000000">start()</text>
</g>
<!-- A1 -->
<g id="node2" class="node">
<title>A1</title>
<polygon fill="none" stroke="#000000" points="229.1645,-525.5 229.1645,-609.5 324.9635,-609.5 324.9635,-525.5 229.1645,-525.5"/>
<text text-anchor="middle" x="277.064" y="-596.5" font-family="Helvetica,sans-Serif" font-size="10.00" fill="#000000">SceneManager</text>
<polyline fill="none" stroke="#000000" points="229.1645,-589.5 324.9635,-589.5 "/>
<text text-anchor="middle" x="277.064" y="-576.5" font-family="Helvetica,sans-Serif" font-size="10.00" fill="#000000">renderer</text>
<polyline fill="none" stroke="#000000" points="229.1645,-569.5 324.9635,-569.5 "/>
<text text-anchor="middle" x="277.064" y="-556.5" font-family="Helvetica,sans-Serif" font-size="10.00" fill="#000000">addScene()</text>
<text text-anchor="middle" x="277.064" y="-544.5" font-family="Helvetica,sans-Serif" font-size="10.00" fill="#000000">changeScene()</text>
<text text-anchor="middle" x="277.064" y="-532.5" font-family="Helvetica,sans-Serif" font-size="10.00" fill="#000000">draw()</text>
</g>
<!-- A0&#45;&gt;A1 -->
<g id="edge1" class="edge">
<title>A0&#45;&gt;A1</title>
<path fill="none" stroke="#000000" d="M277.064,-648.1417C277.064,-635.3352 277.064,-621.8722 277.064,-609.6942"/>
<polygon fill="#000000" stroke="#000000" points="277.0641,-648.1556 281.064,-654.1556 277.064,-660.1556 273.064,-654.1555 277.0641,-648.1556"/>
<text text-anchor="middle" x="285.5164" y="-624.8203" font-family="Helvetica,sans-Serif" font-size="10.00" fill="#000000">1</text>
<text text-anchor="middle" x="268.6116" y="-639.0294" font-family="Helvetica,sans-Serif" font-size="10.00" fill="#000000">1</text>
</g>
<!-- A2 -->
<g id="node3" class="node">
<title>A2</title>
<polygon fill="none" stroke="#000000" points="149.4425,-330.5 149.4425,-474.5 274.6855,-474.5 274.6855,-330.5 149.4425,-330.5"/>
<text text-anchor="middle" x="212.064" y="-461.5" font-family="Helvetica,sans-Serif" font-size="10.00" fill="#000000">Scene</text>
<polyline fill="none" stroke="#000000" points="149.4425,-454.5 274.6855,-454.5 "/>
<text text-anchor="middle" x="212.064" y="-441.5" font-family="Helvetica,sans-Serif" font-size="10.00" fill="#000000">camera</text>
<text text-anchor="middle" x="212.064" y="-429.5" font-family="Helvetica,sans-Serif" font-size="10.00" fill="#000000">scene</text>
<text text-anchor="middle" x="212.064" y="-417.5" font-family="Helvetica,sans-Serif" font-size="10.00" fill="#000000">input</text>
<text text-anchor="middle" x="212.064" y="-405.5" font-family="Helvetica,sans-Serif" font-size="10.00" fill="#000000">physicsWorld</text>
<text text-anchor="middle" x="212.064" y="-393.5" font-family="Helvetica,sans-Serif" font-size="10.00" fill="#000000">components</text>
<text text-anchor="middle" x="212.064" y="-381.5" font-family="Helvetica,sans-Serif" font-size="10.00" fill="#000000">entities</text>
<polyline fill="none" stroke="#000000" points="149.4425,-374.5 274.6855,-374.5 "/>
<text text-anchor="middle" x="212.064" y="-361.5" font-family="Helvetica,sans-Serif" font-size="10.00" fill="#000000">addComponentType()</text>
<text text-anchor="middle" x="212.064" y="-349.5" font-family="Helvetica,sans-Serif" font-size="10.00" fill="#000000">add()</text>
<text text-anchor="middle" x="212.064" y="-337.5" font-family="Helvetica,sans-Serif" font-size="10.00" fill="#000000">update()</text>
</g>
<!-- A1&#45;&gt;A2 -->
<g id="edge2" class="edge">
<title>A1&#45;&gt;A2</title>
<path fill="none" stroke="#000000" d="M256.0616,-514.1862C251.0923,-501.5718 245.7113,-487.9123 240.4742,-474.6182"/>
<polygon fill="#000000" stroke="#000000" points="256.0952,-514.2717 262.016,-518.388 260.4936,-525.4366 254.5728,-521.3203 256.0952,-514.2717"/>
<text text-anchor="middle" x="254.982" y="-485.385" font-family="Helvetica,sans-Serif" font-size="10.00" fill="#000000">1..*</text>
<text text-anchor="middle" x="245.9857" y="-508.6699" font-family="Helvetica,sans-Serif" font-size="10.00" fill="#000000">1</text>
</g>
<!-- A3 -->
<g id="node4" class="node">
<title>A3</title>
<polygon fill="none" stroke="#000000" points="292.394,-330.5 292.394,-474.5 393.734,-474.5 393.734,-330.5 292.394,-330.5"/>
<text text-anchor="middle" x="343.064" y="-461.5" font-family="Helvetica,sans-Serif" font-size="10.00" fill="#000000">InputManager</text>
<polyline fill="none" stroke="#000000" points="292.394,-454.5 393.734,-454.5 "/>
<text text-anchor="middle" x="343.064" y="-441.5" font-family="Helvetica,sans-Serif" font-size="10.00" fill="#000000">keyCallbacks</text>
<text text-anchor="middle" x="343.064" y="-429.5" font-family="Helvetica,sans-Serif" font-size="10.00" fill="#000000">gpBtnCallbacks</text>
<text text-anchor="middle" x="343.064" y="-417.5" font-family="Helvetica,sans-Serif" font-size="10.00" fill="#000000">gpAxisCallbacks</text>
<text text-anchor="middle" x="343.064" y="-405.5" font-family="Helvetica,sans-Serif" font-size="10.00" fill="#000000">controllers</text>
<text text-anchor="middle" x="343.064" y="-393.5" font-family="Helvetica,sans-Serif" font-size="10.00" fill="#000000">cameraControl</text>
<polyline fill="none" stroke="#000000" points="292.394,-386.5 393.734,-386.5 "/>
<text text-anchor="middle" x="343.064" y="-373.5" font-family="Helvetica,sans-Serif" font-size="10.00" fill="#000000">dispose()</text>
<text text-anchor="middle" x="343.064" y="-361.5" font-family="Helvetica,sans-Serif" font-size="10.00" fill="#000000">prepare()</text>
<text text-anchor="middle" x="343.064" y="-349.5" font-family="Helvetica,sans-Serif" font-size="10.00" fill="#000000">update()</text>
<text text-anchor="middle" x="343.064" y="-337.5" font-family="Helvetica,sans-Serif" font-size="10.00" fill="#000000">bindControls()</text>
</g>
<!-- A1&#45;&gt;A3 -->
<g id="edge3" class="edge">
<title>A1&#45;&gt;A3</title>
<path fill="none" stroke="#000000" d="M298.3895,-514.1862C303.4353,-501.5718 308.8991,-487.9123 314.2167,-474.6182"/>
<polygon fill="#000000" stroke="#000000" points="298.3461,-514.2949 299.8316,-521.3513 293.8894,-525.4366 292.4038,-518.3802 298.3461,-514.2949"/>
<text text-anchor="middle" x="315.3326" y="-491.5871" font-family="Helvetica,sans-Serif" font-size="10.00" fill="#000000">1</text>
<text text-anchor="middle" x="292.7734" y="-502.4678" font-family="Helvetica,sans-Serif" font-size="10.00" fill="#000000">1</text>
</g>
<!-- A4 -->
<g id="node5" class="node">
<title>A4</title>
<polygon fill="none" stroke="#000000" points="0,-36.5 0,-96.5 114.128,-96.5 114.128,-36.5 0,-36.5"/>
<text text-anchor="middle" x="57.064" y="-83.5" font-family="Helvetica,sans-Serif" font-size="10.00" fill="#000000">PhysicsComponent</text>
<polyline fill="none" stroke="#000000" points="0,-76.5 114.128,-76.5 "/>
<text text-anchor="middle" x="57.064" y="-63.5" font-family="Helvetica,sans-Serif" font-size="10.00" fill="#000000">body</text>
<polyline fill="none" stroke="#000000" points="0,-56.5 114.128,-56.5 "/>
<text text-anchor="middle" x="57.064" y="-43.5" font-family="Helvetica,sans-Serif" font-size="10.00" fill="#000000">update()</text>
</g>
<!-- A2&#45;&gt;A4 -->
<g id="edge5" class="edge">
<title>A2&#45;&gt;A4</title>
<path fill="none" stroke="#000000" d="M146.5872,-319.9454C137.962,-307.0029 129.795,-293.448 123.064,-280 92.1547,-218.2455 72.3203,-139.1497 63.1032,-96.6837"/>
<polygon fill="none" stroke="#000000" points="146.8116,-320.2737 153.4999,-322.9694 153.584,-330.18 146.8957,-327.4843 146.8116,-320.2737"/>
<text text-anchor="middle" x="75.3092" y="-109.5271" font-family="Helvetica,sans-Serif" font-size="10.00" fill="#000000">0..*</text>
<text text-anchor="middle" x="136.3766" y="-316.9866" font-family="Helvetica,sans-Serif" font-size="10.00" fill="#000000">1</text>
</g>
<!-- A5 -->
<g id="node6" class="node">
<title>A5</title>
<polygon fill="none" stroke="#000000" points="132.2215,-30.5 132.2215,-102.5 251.9065,-102.5 251.9065,-30.5 132.2215,-30.5"/>
<text text-anchor="middle" x="192.064" y="-89.5" font-family="Helvetica,sans-Serif" font-size="10.00" fill="#000000">GraphicsComponent</text>
<polyline fill="none" stroke="#000000" points="132.2215,-82.5 251.9065,-82.5 "/>
<text text-anchor="middle" x="192.064" y="-69.5" font-family="Helvetica,sans-Serif" font-size="10.00" fill="#000000">Loaders</text>
<text text-anchor="middle" x="192.064" y="-57.5" font-family="Helvetica,sans-Serif" font-size="10.00" fill="#000000">mesh</text>
<polyline fill="none" stroke="#000000" points="132.2215,-50.5 251.9065,-50.5 "/>
<text text-anchor="middle" x="192.064" y="-37.5" font-family="Helvetica,sans-Serif" font-size="10.00" fill="#000000">transform()</text>
</g>
<!-- A2&#45;&gt;A5 -->
<g id="edge7" class="edge">
<title>A2&#45;&gt;A5</title>
<path fill="none" stroke="#000000" d="M227.6933,-317.8884C232.9427,-276.9725 235.9223,-227.2516 229.064,-183 224.7738,-155.3184 215.0707,-125.2097 206.6774,-102.5365"/>
<polygon fill="none" stroke="#000000" points="227.6617,-318.1207 230.8141,-324.6063 226.0399,-330.0106 222.8875,-323.525 227.6617,-318.1207"/>
<text text-anchor="middle" x="220.8147" y="-113.6836" font-family="Helvetica,sans-Serif" font-size="10.00" fill="#000000">0..*</text>
<text text-anchor="middle" x="220.1148" y="-307.9084" font-family="Helvetica,sans-Serif" font-size="10.00" fill="#000000">1</text>
</g>
<!-- A6 -->
<g id="node7" class="node">
<title>A6</title>
<polygon fill="none" stroke="#000000" points="132.329,-183.5 132.329,-279.5 219.799,-279.5 219.799,-183.5 132.329,-183.5"/>
<text text-anchor="middle" x="176.064" y="-266.5" font-family="Helvetica,sans-Serif" font-size="10.00" fill="#000000">Entity</text>
<polyline fill="none" stroke="#000000" points="132.329,-259.5 219.799,-259.5 "/>
<text text-anchor="middle" x="176.064" y="-246.5" font-family="Helvetica,sans-Serif" font-size="10.00" fill="#000000">id</text>
<text text-anchor="middle" x="176.064" y="-234.5" font-family="Helvetica,sans-Serif" font-size="10.00" fill="#000000">components</text>
<text text-anchor="middle" x="176.064" y="-222.5" font-family="Helvetica,sans-Serif" font-size="10.00" fill="#000000">needsUpdate</text>
<polyline fill="none" stroke="#000000" points="132.329,-215.5 219.799,-215.5 "/>
<text text-anchor="middle" x="176.064" y="-202.5" font-family="Helvetica,sans-Serif" font-size="10.00" fill="#000000">attach()</text>
<text text-anchor="middle" x="176.064" y="-190.5" font-family="Helvetica,sans-Serif" font-size="10.00" fill="#000000">detach()</text>
</g>
<!-- A2&#45;&gt;A6 -->
<g id="edge4" class="edge">
<title>A2&#45;&gt;A6</title>
<path fill="none" stroke="#000000" d="M194.4286,-318.7318C191.6036,-305.3129 188.7665,-291.8371 186.1961,-279.6273"/>
<polygon fill="none" stroke="#000000" points="194.4289,-318.7336 199.5792,-323.7808 196.9011,-330.4762 191.7508,-325.429 194.4289,-318.7336"/>
<text text-anchor="middle" x="198.2013" y="-292.6233" font-family="Helvetica,sans-Serif" font-size="10.00" fill="#000000">0..*</text>
<text text-anchor="middle" x="184.8959" y="-311.4801" font-family="Helvetica,sans-Serif" font-size="10.00" fill="#000000">1</text>
</g>
<!-- A7 -->
<g id="node8" class="node">
<title>A7</title>
<polygon fill="none" stroke="#000000" points="270.275,-.5 270.275,-132.5 403.853,-132.5 403.853,-.5 270.275,-.5"/>
<text text-anchor="middle" x="337.064" y="-119.5" font-family="Helvetica,sans-Serif" font-size="10.00" fill="#000000">AudioComponent</text>
<polyline fill="none" stroke="#000000" points="270.275,-112.5 403.853,-112.5 "/>
<text text-anchor="middle" x="337.064" y="-99.5" font-family="Helvetica,sans-Serif" font-size="10.00" fill="#000000">sound</text>
<text text-anchor="middle" x="337.064" y="-87.5" font-family="Helvetica,sans-Serif" font-size="10.00" fill="#000000">positional</text>
<text text-anchor="middle" x="337.064" y="-75.5" font-family="Helvetica,sans-Serif" font-size="10.00" fill="#000000">mircrophone</text>
<polyline fill="none" stroke="#000000" points="270.275,-68.5 403.853,-68.5 "/>
<text text-anchor="middle" x="337.064" y="-55.5" font-family="Helvetica,sans-Serif" font-size="10.00" fill="#000000">update()</text>
<text text-anchor="middle" x="337.064" y="-43.5" font-family="Helvetica,sans-Serif" font-size="10.00" fill="#000000">toggle()</text>
<text text-anchor="middle" x="337.064" y="-31.5" font-family="Helvetica,sans-Serif" font-size="10.00" fill="#000000">play()</text>
<text text-anchor="middle" x="337.064" y="-19.5" font-family="Helvetica,sans-Serif" font-size="10.00" fill="#000000">enablePositionalAudio()</text>
<text text-anchor="middle" x="337.064" y="-7.5" font-family="Helvetica,sans-Serif" font-size="10.00" fill="#000000">enableMicrophone()</text>
</g>
<!-- A2&#45;&gt;A7 -->
<g id="edge6" class="edge">
<title>A2&#45;&gt;A7</title>
<path fill="none" stroke="#000000" d="M243.0664,-319.1656C264.4667,-261.6414 292.5375,-186.1872 312.4147,-132.7574"/>
<polygon fill="none" stroke="#000000" points="243.0638,-319.1726 244.7207,-326.1908 238.8796,-330.4196 237.2228,-323.4014 243.0638,-319.1726"/>
<text text-anchor="middle" x="314.0164" y="-149.6932" font-family="Helvetica,sans-Serif" font-size="10.00" fill="#000000">0..*</text>
<text text-anchor="middle" x="237.2779" y="-307.4838" font-family="Helvetica,sans-Serif" font-size="10.00" fill="#000000">1</text>
</g>
<!-- A8 -->
<g id="node9" class="node">
<title>A8</title>
<polygon fill="none" stroke="#000000" points="518.599,-448.5 411.529,-448.5 411.529,-356.5 524.599,-356.5 524.599,-442.5 518.599,-448.5"/>
<polyline fill="none" stroke="#000000" points="518.599,-448.5 518.599,-442.5 "/>
<polyline fill="none" stroke="#000000" points="524.599,-442.5 518.599,-442.5 "/>
<text text-anchor="middle" x="468.064" y="-435.5" font-family="Helvetica,sans-Serif" font-size="10.00" fill="#000000">The Scene keeps</text>
<text text-anchor="middle" x="468.064" y="-423.5" font-family="Helvetica,sans-Serif" font-size="10.00" fill="#000000">track of both a list</text>
<text text-anchor="middle" x="468.064" y="-411.5" font-family="Helvetica,sans-Serif" font-size="10.00" fill="#000000">of entities (for</text>
<text text-anchor="middle" x="468.064" y="-399.5" font-family="Helvetica,sans-Serif" font-size="10.00" fill="#000000">reference) and lists</text>
<text text-anchor="middle" x="468.064" y="-387.5" font-family="Helvetica,sans-Serif" font-size="10.00" fill="#000000">of each component</text>
<text text-anchor="middle" x="468.064" y="-375.5" font-family="Helvetica,sans-Serif" font-size="10.00" fill="#000000">type (for optimized</text>
<text text-anchor="middle" x="468.064" y="-363.5" font-family="Helvetica,sans-Serif" font-size="10.00" fill="#000000">traversal)</text>
</g>
<!-- A2&#45;&gt;A8 -->
<g id="edge8" class="edge">
<title>A2&#45;&gt;A8</title>
<path fill="none" stroke="#000000" stroke-dasharray="5,2" d="M258.1874,-474.654C268.0626,-484.9181 279.3964,-494.0079 292.064,-500 333.0439,-519.3845 353.4588,-520.1577 394.064,-500 416.0483,-489.0863 433.2583,-468.1738 445.5271,-448.5064"/>
</g>
<!-- A6&#45;&gt;A4 -->
<g id="edge9" class="edge">
<title>A6&#45;&gt;A4</title>
<path fill="none" stroke="#000000" d="M134.0626,-173.2627C115.446,-147.4499 94.3209,-118.1587 78.9132,-96.7951"/>
<polygon fill="none" stroke="#000000" points="134.3049,-173.5988 141.0589,-176.1254 141.3244,-183.3316 134.5704,-180.805 134.3049,-173.5988"/>
<text text-anchor="middle" x="96.3715" y="-103.5524" font-family="Helvetica,sans-Serif" font-size="10.00" fill="#000000">0..1</text>
<text text-anchor="middle" x="123.866" y="-170.5743" font-family="Helvetica,sans-Serif" font-size="10.00" fill="#000000">1</text>
</g>
<!-- A6&#45;&gt;A5 -->
<g id="edge11" class="edge">
<title>A6&#45;&gt;A5</title>
<path fill="none" stroke="#000000" d="M181.9096,-171.2173C184.14,-148.2163 186.6118,-122.7257 188.5582,-102.6534"/>
<polygon fill="none" stroke="#000000" points="181.8932,-171.3876 185.2953,-177.7457 180.7349,-183.3316 177.3327,-176.9735 181.8932,-171.3876"/>
<text text-anchor="middle" x="195.2216" y="-118.5107" font-family="Helvetica,sans-Serif" font-size="10.00" fill="#000000">0..1</text>
<text text-anchor="middle" x="174.0715" y="-161.4743" font-family="Helvetica,sans-Serif" font-size="10.00" fill="#000000">1</text>
</g>
<!-- A6&#45;&gt;A7 -->
<g id="edge10" class="edge">
<title>A6&#45;&gt;A7</title>
<path fill="none" stroke="#000000" d="M228.6148,-177.6436C242.6554,-163.2541 257.9913,-147.5373 272.5937,-132.5721"/>
<polygon fill="none" stroke="#000000" points="228.4385,-177.8242 227.1112,-184.9122 220.058,-186.413 221.3853,-179.3251 228.4385,-177.8242"/>
<text text-anchor="middle" x="265.9844" y="-148.4484" font-family="Helvetica,sans-Serif" font-size="10.00" fill="#000000">0..1</text>
<text text-anchor="middle" x="226.6673" y="-164.5367" font-family="Helvetica,sans-Serif" font-size="10.00" fill="#000000">1</text>
</g>
</g>
</svg>
